# xmcd
#
# Track frame offsets:
#	150
#	6638
#	11865
#	19540
#	25046
#	38937
#	51999
#	70641
#	84707
#	102350
#	130287
#	140020
#	146255
#	153496
#	158675
#	167952
#
# Disc length: 2965 seconds
#
# Revision: 0
# Processed by: cddbd v1.5.2PL0 Copyright (c) Steve Scherf et al.
# Submitted via: EasyCDDAExtractor 16.0.6.1
#
DISCID=d60b9310
DTITLE=Γαϊτάνος Πέτρος - Ύμνοι της Ανάστασης και Πεντηκοσταρίου
DYEAR=2009
DGENRE=Βυζ. Εκκλησιαστική
TTITLE0=Γαϊτάνος Πέτρος-χορ. Γεωργίου Ναούμ - Αναστήτω-Πάσχα ιερόν [στ. ιδιόμ.
TTITLE0=πλ. α']
TTITLE1=Γαϊτάνος Πέτρος-χορ. Γεωργίου Ναούμ - Ως εκλείπει-Δεύτε από θέας [στ. 
TTITLE1=ιδιόμ. πλ. α']
TTITLE2=Γαϊτάνος Πέτρος-χορ. Γεωργίου Ναούμ - Ούτως απολούνται-Αι μυροφόροι [σ
TTITLE2=τ. ιδιόμ. πλ. α']
TTITLE3=Γαϊτάνος Πέτρος-χορ. Γεωργίου Ναούμ - Αύτη η ημέρα-Πάσχα το τερπνόν [σ
TTITLE3=τ. ιδιόμ. πλ. α']
TTITLE4=Γαϊτάνος Πέτρος-χορ. Γεωργίου Ναούμ - Αναστάσεως ημέρα [δοξ. Κυρ. Πάσχ
TTITLE4=α πλ. α']
TTITLE5=Γαϊτάνος Πέτρος-χορ. Γεωργίου Ναούμ - Χριστός Ανέστη [πλ. α']
TTITLE6=Γαϊτάνος Πέτρος-χορ. Γεωργίου Ναούμ - Αναστάσεως ημέρα [Αν. ήχ. α', δ.
TTITLE6=Ν. Τσακίρογλου]
TTITLE7=Γαϊτάνος Πέτρος-χορ. Γεωργίου Ναούμ - Μεθ' ημέρας οκτώ [δοξ. Κυρ. Θωμά
TTITLE7=πλ. β']
TTITLE8=Γαϊτάνος Πέτρος-χορ. Γεωργίου Ναούμ - Κύριε τον παράλυτον [δοξ. Κυρ. Π
TTITLE8=αραλύτου, πλ. δ']
TTITLE9=Γαϊτάνος Πέτρος-χορ. Γεωργίου Ναούμ - Ανέβη ο Ιησούς [δοξ. στ. Κυρ. Πα
TTITLE9=ραλύτου πλ. α']
TTITLE10=Γαϊτάνος Πέτρος-χορ. Γεωργίου Ναούμ - Ο Κύριος ανελήφθη [στ. ιδιόμ. Α
TTITLE10=νάληψης πλ. β']
TTITLE11=Γαϊτάνος Πέτρος-χορ. Γεωργίου Ναούμ - Πεντηκοστήν εορτάζομεν [στ. ιδι
TTITLE11=όμ. Πεντηκοστής ήχ. α']
TTITLE12=Γαϊτάνος Πέτρος-χορ. Γεωργίου Ναούμ - Πάντα χορηγεί [στ. ιδιόμ. Πεντη
TTITLE12=κοστής ήχ. α']
TTITLE13=Γαϊτάνος Πέτρος-χορ. Γεωργίου Ναούμ - Ευλογητός ει Χριστέ [απολυτ. Πε
TTITLE13=ντηκοστής πλ. δ']
TTITLE14=Γαϊτάνος Πέτρος-χορ. Γεωργίου Ναούμ - Βασιλεύ ουράνιε [δοξ. εσπ. Πεντ
TTITLE14=ηκοστής πλ. β']
TTITLE15=Γαϊτάνος Πέτρος - Ο ύμνος της αγάπης [α' επ. Παύλου Κορινθίους πλ. α'
TTITLE15=, Μαν. Χατζημάρκος]
EXTD=
EXTT0=
EXTT1=
EXTT2=
EXTT3=
EXTT4=
EXTT5=
EXTT6=
EXTT7=
EXTT8=
EXTT9=
EXTT10=
EXTT11=
EXTT12=
EXTT13=
EXTT14=
EXTT15=
PLAYORDER=
